# xmcd
#
# Track frame offsets:
#	150
#	16075
#	31307
#	52958
#	70374
#	85175
#	100262
#	124005
#	145820
#	164873
#	187935
#	202256
#
# Disc length: 2903 seconds
# Revision: 0
# Processed by: cddbd v1.5.2PL0 Copyright (c) Steve Scherf et al.
# Submitted via: dBpowerAMP V12.0
#
DISCID=a50b550c
DTITLE=The Jakob's Ferry Stragglers - The Lane Change
DYEAR=2015
DGENRE=Country
TTITLE0=The Legend of Gandy Grey
TTITLE1=Checkmate
TTITLE2=Blue Diamond Mines
TTITLE3=Beaumont Butler's Blues
TTITLE4=Sandy Boys
TTITLE5=Night Train to Memphis
TTITLE6=Mannington #9
TTITLE7=Jangly Jack
TTITLE8=No Ash Will Burn
TTITLE9=Old Red Hill
TTITLE10=Whiteface
TTITLE11=Scattered Pieces
EXTD=
EXTT0=
EXTT1=
EXTT2=
EXTT3=
EXTT4=
EXTT5=
EXTT6=
EXTT7=
EXTT8=
EXTT9=
EXTT10=
EXTT11=
PLAYORDER=
